<svg xmlns="http://www.w3.org/2000/svg" xmlns:xlink="http://www.w3.org/1999/xlink" width="384.664" height="427.711"><defs><path id="a" d="M0 0h384.664v427.711H0z"/></defs><clipPath id="b"><use xlink:href="#a" overflow="visible"/></clipPath><path clip-path="url(#b)" d="M.154 235.346C.153 185.019.457 134.689.001 84.366c-.18-19.848 15.894-41.795 41.973-41.667 12.832.063 25.664.009 38.496.01 5.111 0 4.799.235 4.804-4.979.004-5.166-.07-10.333.019-15.498C85.504 9.987 94.333.804 106.545.034c10.84-.684 21.624 9.143 21.982 20.223.195 5.993.049 11.997.057 17.996.006 4.432-.357 4.434 4.298 4.433 17.998-.001 35.996.021 53.993.02 21.331 0 42.662-.015 63.993-.025 1 0 2.002-.059 2.999-.001 1.773.103 2.285-.799 2.274-2.432-.038-5.999-.009-11.999.013-17.998.041-11.061 7.026-19.545 17.591-21.708 12.042-2.465 25.119 6.616 25.666 20.679.214 5.491.053 10.998.054 16.497.001 5.259-.267 4.991 4.789 4.991 12.831-.001 25.663-.034 38.495.009 20.739.07 37.092 13.387 41.261 33.689.53 2.579.55 5.294.552 7.946.029 58.493.021 116.986.022 175.479 0 42.161-.177 84.324.079 126.484.129 21.189-16.776 39.214-36.373 40.725-7.124.548-14.296.648-21.446.651-68.655.032-137.31-.005-205.964-.012-25.33-.002-50.66.034-75.991.031-9.131-.002-17.955-1.404-25.715-6.616-12.15-8.16-18.99-19.393-19.003-34.267C.128 336.334.155 285.84.154 235.346m192.193-106.45c-47.327 0-94.653-.023-141.98.023-7.928.008-6.874-1.055-6.882 6.907-.047 46.326-.022 92.653-.022 138.98 0 34.661-.002 69.322 0 103.984 0 5.082-.442 5.128 5.22 5.123 32.496-.03 64.991.008 97.486.01 62.824.005 125.647.007 188.471-.007 7.475-.002 6.619.759 6.622-6.713.02-49.327.014-98.653.009-147.979-.002-31.829-.014-63.658-.025-95.487-.002-4.994.485-4.842-4.919-4.841h-143.98"/><path clip-path="url(#b)" d="M192.735 191.926c5.662-.001 11.325-.046 16.986.014 4.099.044 4.475.316 4.498 4.119.071 11.99.063 23.98-.011 35.971-.02 3.082-.496 3.586-3.475 3.605-12.156.079-24.314.084-36.47.01-3.286-.021-3.725-.502-3.743-3.852a3317.75 3317.75 0 0 1 0-35.971c.02-3.466.473-3.833 4.23-3.876 5.994-.071 11.99-.02 17.985-.02m63.416 21.666c-.002-5.989-.057-11.98.018-17.969.044-3.505.156-3.67 3.72-3.69 11.812-.063 23.626-.055 35.438.021 3.83.025 4.128.417 4.138 4.454.028 11.646.019 23.293-.011 34.94-.011 4.239-.069 4.318-4.075 4.332-11.647.038-23.293.037-34.94.014-4.163-.008-4.239-.08-4.272-4.133-.05-5.989-.014-11.979-.016-17.969m-63.702 63.995c5.99.001 11.98-.043 17.969.018 3.645.037 3.824.174 3.838 3.561.047 12.145-.013 24.291.03 36.436.008 2.253-.737 3.344-3.166 3.332-12.311-.061-24.624.008-36.935-.046-3.161-.014-3.624-.487-3.658-3.919-.086-8.651-.034-17.303-.037-25.955-.002-3.327-.092-6.657.015-9.982.103-3.188.277-3.381 3.476-3.423 6.155-.08 12.312-.023 18.468-.022m-63.867-63.446c0 5.998.048 11.997-.02 17.994-.037 3.218-.248 3.491-3.38 3.508-11.996.066-23.992.075-35.988-.001-3.541-.022-3.896-.442-3.911-4.188a3816.38 3816.38 0 0 1 .019-35.488c.018-3.579.406-3.989 4.075-4.012 11.83-.076 23.659-.087 35.488-.024 3.561.019 3.663.19 3.7 3.717.063 6.164.017 12.329.017 18.494m.001 85.175c0 5.82.037 11.641-.014 17.46-.035 3.976-.09 4.077-3.762 4.093-11.807.052-23.613.058-35.419.005-4.014-.018-4.082-.121-4.096-4.319-.037-11.639-.04-23.28.003-34.92.015-3.922.095-4.015 3.825-4.029 11.973-.046 23.946-.046 35.919.002 3.415.015 3.489.117 3.527 3.749.063 5.986.017 11.973.017 17.959m149.301-21.746c5.822 0 11.645-.032 17.466.011 3.966.029 4.068.076 4.085 3.778.056 11.81.066 23.621.014 35.431-.017 3.999-.124 4.086-4.336 4.101-11.644.042-23.289.031-34.933-.017-3.936-.016-4.018-.096-4.029-3.834-.037-11.976-.033-23.953.014-35.93.013-3.427.104-3.484 3.754-3.513 5.988-.048 11.977-.013 17.965-.013v-.014z"/></svg>