<svg xmlns="http://www.w3.org/2000/svg" xmlns:xlink="http://www.w3.org/1999/xlink" width="386.633" height="504.304"><path fill="#E2E8EC" d="M.482 381.027h385.756v31.76H.482z"/><defs><path id="a" d="M0 0h386.633v504.304H0z"/></defs><clipPath id="b"><use xlink:href="#a" overflow="visible"/></clipPath><path clip-path="url(#b)" fill="#E2E8EC" d="M98.404 191.903l.019-3.766c10.142-3.533 48.84-9.202 71.959-41.446 11.158-15.563 16.098-35.426 15.234-55.966-.855-20.332-6.666-42.106-27.617-59.008-27.16-21.913-45.146-26.116-64.728-30.082C88.728.714.545.251.545.285c0 2.68.043 8.822 0 14.958 13.393.449 53.787-.831 63.587 1.42 42.304 9.72 61.008 41.959 60.354 76.886-.711 37.941-14.501 79.864-77.263 82.026-11.726.118-31.159-.234-46.523-.36-.155 8.968-.231 12.12-.155 16.186 13.102.203 10.628-.036 27.533-.007 14.645 7.675 16.6 19.78 136.491 158.827 5.829-11.128 100.077-252.017 118.416-302.645.273 4.479.05 208.149.05 267.045 0 10.314-7.678 19.683-11.975 22.819-3.248 2.37-5.099 4.234-30.641 4.5l-.025 7.568c71.788.201 71.928.208 145.752.198.003-1.287-.012-3.93-.005-7.646-17.353.018-28.021-2.116-31.913-5.009-8.608-6.025-11.512-14.063-12.486-22.106.151-165.623.194-167.554.825-281.064 2.837-18.702 10.715-22.013 16.665-24.42 13.736-1.721 8.802-.952 27.117-1.234-.012-5.769 0-1.308 0-7.942-8.083 0-90.233.086-99.878.197-17.111 47.093-108.578 281.061-111.372 287.817-12.439-15.255-59.322-75.448-76.695-96.396"/><defs><path id="c" d="M0 0h386.633v504.304H0z"/></defs><clipPath id="d"><use xlink:href="#c" overflow="visible"/></clipPath><path clip-path="url(#d)" fill="#E2E8EC" stroke="#000" stroke-width=".567" stroke-miterlimit="22.926" d="M98.404 191.903l.019-3.766c10.142-3.533 48.84-9.202 71.959-41.446 11.158-15.563 16.098-35.426 15.234-55.966-.855-20.332-6.666-42.106-27.617-59.008-27.16-21.913-45.146-26.116-64.728-30.082C88.728.714.545.251.545.285c0 2.68.043 8.822 0 14.958 13.393.449 53.787-.831 63.587 1.42 42.304 9.72 61.008 41.959 60.354 76.886-.711 37.941-14.501 79.864-77.263 82.026-11.726.118-31.159-.234-46.523-.36-.155 8.968-.231 12.12-.155 16.186 13.102.203 10.628-.036 27.533-.007 14.645 7.675 16.6 19.78 136.491 158.827 5.829-11.128 100.077-252.017 118.416-302.645.273 4.479.05 208.149.05 267.045 0 10.314-7.678 19.683-11.975 22.819-3.248 2.37-5.099 4.234-30.641 4.5l-.025 7.568c71.788.201 71.928.208 145.752.198.003-1.287-.012-3.93-.005-7.646-17.353.018-28.021-2.116-31.913-5.009-8.608-6.025-11.512-14.063-12.486-22.106.151-165.623.194-167.554.825-281.064 2.837-18.702 10.715-22.013 16.665-24.42 13.736-1.721 8.802-.952 27.117-1.234-.012-5.769 0-1.308 0-7.942-8.083 0-90.233.086-99.878.197-17.111 47.093-108.578 281.061-111.372 287.817-12.439-15.255-59.322-75.448-76.695-96.396z"/><defs><path id="e" d="M0 0h386.633v504.304H0z"/></defs><clipPath id="f"><use xlink:href="#e" overflow="visible"/></clipPath><path clip-path="url(#f)" fill="#E2E8EC" d="M.001 441.556h13.047c4.517 0 7.821 1.183 9.912 3.545 2.091 2.364 3.136 5.909 3.136 10.636v5.051c0 6.854-2.425 11.108-7.277 12.762 4.908 1.537 7.361 5.85 7.361 12.941v9.66c0 3.426.39 5.908 1.171 7.444h-6.608c-.724-1.714-1.087-4.225-1.087-7.533v-9.749c0-3.368-.711-5.746-2.133-7.135-1.422-1.388-3.555-2.083-6.398-2.083H6.524v26.5H.001v-62.039zm6.523 29.247h4.852c2.788 0 4.865-.62 6.231-1.861 1.366-1.241 2.049-3.456 2.049-6.647v-5.938c0-5.672-2.259-8.508-6.775-8.508H6.524v22.954zm33.391-29.247v47.416c0 5.967 2.286 8.951 6.858 8.951 4.517 0 6.775-2.984 6.775-8.951v-47.416h6.106v47.061c0 4.904-1.088 8.745-3.262 11.521-2.175 2.777-5.464 4.166-9.87 4.166-4.349 0-7.611-1.403-9.785-4.21-2.175-2.807-3.262-6.632-3.262-11.477v-47.061h6.44zm29.543 3.457c2.174-2.718 5.408-4.077 9.702-4.077 4.293 0 7.541 1.374 9.743 4.121 2.203 2.748 3.305 6.544 3.305 11.389v1.683h-6.19v-2.038c0-5.908-2.23-8.862-6.691-8.862s-6.691 2.925-6.691 8.773c0 2.187.488 4.21 1.464 6.072.975 1.861 2.188 3.426 3.638 4.697 1.45 1.27 3.025 2.688 4.725 4.254a161.493 161.493 0 0 1 4.726 4.519c1.45 1.448 2.663 3.324 3.638 5.628.976 2.305 1.464 4.816 1.464 7.533 0 4.845-1.115 8.642-3.346 11.389-2.23 2.747-5.52 4.121-9.869 4.121s-7.625-1.374-9.827-4.121c-2.203-2.747-3.304-6.544-3.304-11.389v-3.545h6.105v3.9c0 5.908 2.286 8.863 6.859 8.863 4.572 0 6.858-2.955 6.858-8.863 0-1.891-.362-3.634-1.087-5.229a16.006 16.006 0 0 0-2.802-4.254 42.606 42.606 0 0 0-3.806-3.633 118.552 118.552 0 0 1-4.181-3.723 39.113 39.113 0 0 1-3.806-4.077c-1.143-1.418-2.077-3.131-2.802-5.14-.725-2.009-1.088-4.195-1.088-6.558 0-4.905 1.088-8.715 3.263-11.433m60.154 8.686l-9.284 49.807h-6.273l-9.702-49.365v49.454h-5.687v-62.039h9.116l9.619 49.543 9.284-49.543h9.117v62.039h-6.19v-49.896zm35.063 37.4h-14.804l-2.258 12.496h-6.023l11.208-62.039h9.452l11.208 62.039h-6.524l-2.259-12.496zm-7.528-41.743l-6.439 35.804h13.047l-6.608-35.804zm27.954 4.077v50.162h-5.854v-62.039h8.279l13.55 44.846v-44.846h5.772v62.039h-6.775l-14.972-50.162zm54.802-12.497c4.405 0 7.709 1.389 9.911 4.165 2.203 2.777 3.304 6.589 3.304 11.433v5.318h-6.189v-5.672c0-5.968-2.286-8.951-6.859-8.951-4.572 0-6.858 2.983-6.858 8.951v32.792c0 5.967 2.286 8.951 6.858 8.951 4.573 0 6.859-2.984 6.859-8.951v-12.408h-6.022v-6.204h12.211v18.257c0 4.845-1.101 8.656-3.304 11.433-2.202 2.776-5.506 4.165-9.911 4.165-4.349 0-7.625-1.389-9.828-4.165-2.202-2.777-3.303-6.588-3.303-11.433v-32.083c0-4.844 1.101-8.656 3.303-11.433 2.203-2.776 5.479-4.165 9.828-4.165m20.175.62h13.048c4.516 0 7.82 1.183 9.911 3.545 2.091 2.364 3.136 5.909 3.136 10.636v5.051c0 6.854-2.425 11.108-7.276 12.762 4.907 1.537 7.36 5.85 7.36 12.941v9.66c0 3.426.39 5.908 1.171 7.444h-6.608c-.724-1.714-1.087-4.225-1.087-7.533v-9.749c0-3.368-.711-5.746-2.133-7.135-1.422-1.388-3.555-2.083-6.398-2.083h-4.6v26.5h-6.524v-62.039zm6.524 29.247h4.851c2.788 0 4.865-.62 6.231-1.861 1.366-1.241 2.049-3.456 2.049-6.647v-5.938c0-5.672-2.258-8.508-6.775-8.508h-6.356v22.954zm26.699 17.814v-32.083c0-4.844 1.129-8.656 3.387-11.433 2.258-2.776 5.59-4.165 9.995-4.165s7.751 1.389 10.037 4.165c2.286 2.777 3.429 6.589 3.429 11.433v32.083c0 4.845-1.143 8.656-3.429 11.433-2.286 2.776-5.632 4.165-10.037 4.165-4.349 0-7.667-1.389-9.953-4.165-2.286-2.777-3.429-6.588-3.429-11.433m6.44-32.437v32.792c0 5.967 2.314 8.951 6.942 8.951s6.942-2.984 6.942-8.951V456.18c0-5.968-2.314-8.951-6.942-8.951s-6.942 2.983-6.942 8.951m33.557-14.624v47.416c0 5.967 2.287 8.951 6.859 8.951 4.516 0 6.774-2.984 6.774-8.951v-47.416h6.106v47.061c0 4.904-1.087 8.745-3.262 11.521-2.174 2.777-5.464 4.166-9.869 4.166-4.349 0-7.611-1.403-9.786-4.21s-3.262-6.632-3.262-11.477v-47.061h6.44zm26.949 0h12.797c8.754 0 13.131 5.052 13.131 15.155v7.446c0 9.985-4.544 14.977-13.633 14.977h-5.771v24.461h-6.524v-62.039zm6.525 31.374h5.771c2.454 0 4.266-.649 5.437-1.95 1.171-1.299 1.756-3.427 1.756-6.381v-8.242c0-2.895-.529-5.037-1.589-6.425-1.059-1.389-2.76-2.083-5.102-2.083h-6.273v25.081z"/></svg>