<svg xmlns="http://www.w3.org/2000/svg" width="511.892" height="171.21" viewBox="0.108 170.395 511.892 171.21"><path fill="#FF8023" d="M.108 329.304h509.688v12.301H.108z"/><path d="M38.021 246.372v-1.456c3.927-1.371 18.916-3.563 27.886-16.054 4.322-6.026 6.236-13.718 5.899-21.689-.329-7.874-2.579-16.305-10.693-22.851-10.527-8.478-17.494-10.105-25.093-11.638-1.743-.352-35.899-.538-35.899-.523v5.81c5.19.174 20.833-.321 24.628.55 16.383 3.765 23.625 16.267 23.374 29.78-.275 14.694-5.616 30.93-29.923 31.759-4.539.043-12.068-.093-18.017-.139-.062 3.486-.089 4.69-.062 6.267 5.078.077 4.117 0 10.666 0 5.67 2.974 6.429 7.661 52.863 61.515 2.258-4.311 38.757-97.6 45.86-117.213.108 1.735.019 80.617.019 103.409 0 3.997-2.974 7.622-4.648 8.838-1.259.918-1.975 1.638-11.867 1.743v2.932c27.804.077 27.859.081 56.449.077v-2.963c-6.72 0-10.844-.821-12.359-1.937-3.335-2.324-4.462-5.445-4.837-8.559.058-64.149.074-64.896.321-108.859 1.096-7.243 4.148-8.521 6.452-9.458 5.322-.666 3.408-.387 10.504-.476v-3.075c-3.133 0-34.95.031-38.684.074-6.627 18.242-42.053 108.855-43.134 111.473-4.817-5.912-22.973-29.223-29.705-37.337zm161.021-73.185c6.782 2.792 9.493 6.545 9.493 12.212 0 7.661-5.81 12.781-13.726 14.044l14.365 18.672c2.634 3.354 3.989 4.229 8.133 4.469v1.754h-12.781c-3.83-5.345-9.497-13.246-17.076-23.78a52.256 52.256 0 0 1-5.906-.318v14.524c0 6.464.387 7.82 7.022 7.82v1.754h-22.324v-1.754c6.623 0 7.184-1.356 7.184-7.82v-33.676c0-6.464-.562-7.82-7.184-7.82v-1.758h25.697c1.994 0 4.388.562 7.103 1.677zm-11.414 1.677c-4.946 0-6.065 1.197-6.065 4.787v17.398c1.677.077 2.874.159 3.513.159 9.737 0 15.159-4.148 15.159-11.491 0-7.262-4.226-10.853-12.607-10.853zm81.314 6.224v23.463c0 13.404-7.661 20.841-21.069 20.841-13.087 0-19.95-6.94-19.95-19.869v-24.4c0-6.464-.387-7.82-7.022-7.82v-1.793h22.343v1.758c-6.623 0-7.022 1.356-7.022 7.82v27.289c0 8.54 5.035 13.556 13.556 13.556 10.294 0 15.492-5.906 15.492-17.715v-23.13c0-7.262-1.278-7.82-7.026-7.82v-1.758h17.719v1.758c-6.46.001-7.021 1.438-7.021 7.82zm46.205 7.34c-2.556-9.574-7.421-14.361-14.524-14.361-4.868 0-8.598 2.951-8.598 7.82 0 7.746 11.092 10.934 19.628 16.267a14.555 14.555 0 0 1 6.863 12.448c0 9.02-7.978 14.764-16.917 14.764-2.235 0-10.07-2.475-12.289-2.475-1.754 0-2.711.639-2.711 1.998v.503h-1.596l-2.397-17.157h2.06c3.59 9.338 9.016 14.047 16.267 14.047 5.507 0 9.896-3.431 9.896-8.78 0-8.858-10.612-11.731-18.978-16.917a13.792 13.792 0 0 1-6.7-11.968c-.008-8.238 7.091-14.222 15.151-14.222 2.235 0 9.179 2.711 11.332 2.711 1.359 0 2.235-.879 2.556-2.556h1.596l1.437 17.874-2.076.004zm54.024 35.91v-1.754c6.623 0 7.181-1.356 7.181-7.82v-34.299l-20.914 43.889h-1.278l-19.942-43.889v36.406c0 4.148 1.518 5.744 7.022 5.744v1.754h-17.715v-1.754c6.545 0 7.181-1.518 7.181-7.82v-36.1c0-3.59-2.394-5.422-7.181-5.422v-1.762h15.492l18.354 40.062 18.978-40.062h15.163v1.758c-6.305.159-7.022 1.673-7.022 7.82v33.695c0 6.464.387 7.82 7.022 7.82v1.754l-22.341-.02zm62.003 0v-1.754c3.509 0 5.267-1.038 5.267-3.033 0-2.235-2.076-7.661-4.152-12.289h-20.914c-2.235 4.71-4.469 10.136-4.469 12.289 0 1.995 1.758 3.033 5.267 3.033v1.754h-15.965v-1.754c3.191-.24 5.507-1.995 7.022-5.422l19.803-46.767h2.076l18.35 44.21c3.033 7.262 3.989 7.82 7.82 7.978v1.754h-20.105zm-18.203-20.748h18.203l-9.257-20.914-8.946 20.914zm91.217-22.502v44.303h-2.072l-35.911-43.823v35.109c0 4.868 1.913 5.906 7.022 5.906v1.754h-17.715v-1.754c6.542 0 7.181-1.518 7.181-7.82v-36.069c0-3.59-2.394-5.422-7.181-5.422v-1.762h13.404l31.6 39.423v-31.759c0-4.865-1.913-5.902-7.022-5.902v-1.762h17.715v1.758c-6.556.001-7.021 1.515-7.021 7.82zm-286.087 82.12h-1.274c-3.098-9.338-8.858-14.044-17.398-14.044-12.208 0-19.791 10.07-19.791 24.098 0 14.524 8.459 25.856 20.271 25.856 3.803 0 7.541-.99 10.844-2.874v-15.322c0-6.065-.72-7.661-6.863-7.661v-1.596h20.434v1.596c-5.5 0-5.887 2.091-5.887 7.661v16.119a38.269 38.269 0 0 1-18.513 4.71c-16.6 0-29.206-10.217-29.206-26.724 0-15.399 11.569-28.567 27.928-28.567 3.273 0 7.262.879 11.971 2.552 1.514.562 2.471.798 2.87.798 1.198 0 1.844-1.117 1.937-3.35h1.437l1.24 16.748zm60.33-13.804c6.782 2.792 9.497 6.545 9.497 12.212 0 7.661-5.81 12.781-13.726 14.044l14.361 18.672c2.634 3.354 3.993 4.229 8.133 4.469v1.754h-12.781c-3.83-5.345-9.493-13.246-17.076-23.78-1.972.006-3.943-.1-5.902-.318v14.524c0 6.464.387 7.82 7.022 7.82v1.754h-22.324v-1.754c6.623 0 7.181-1.356 7.181-7.82v-33.68c0-6.464-.558-7.82-7.181-7.82v-1.754h25.694c1.993 0 4.387.558 7.102 1.677zm-11.414 1.677c-4.946 0-6.061 1.197-6.061 4.787v17.394c1.673.081 2.87.159 3.509.159 9.744-.004 15.167-4.148 15.167-11.491 0-7.262-4.233-10.852-12.614-10.852l-.001.003zm51.871 22.979c0-14.206 11.809-27.452 26.336-27.452s26.336 13.246 26.336 27.452c0 14.206-11.809 27.529-26.336 27.529s-26.336-13.327-26.336-27.529zm8.776 0c0 13.885 6.944 24.257 17.556 24.257s17.556-10.372 17.556-24.257c0-13.807-6.863-24.098-17.556-24.098s-17.564 10.287-17.564 24.098h.008zm113.634-16.759v23.474c0 13.404-7.661 20.825-21.065 20.825-13.087 0-19.95-6.94-19.95-19.868v-24.431c0-6.464-.387-7.82-7.022-7.82v-1.754h22.343v1.754c-6.623 0-7.022 1.356-7.022 7.82v27.293c0 8.521 5.035 13.556 13.556 13.556 10.294 0 15.492-5.902 15.492-17.715v-23.133c0-7.262-1.274-7.82-7.022-7.82v-1.754h17.715v1.754c-6.467 0-7.025 1.437-7.025 7.819zm50.272 20.764a46.353 46.353 0 0 1-6.542-.476v13.404c0 6.464.558 7.82 7.181 7.82v1.754h-22.502v-1.754c6.623 0 7.181-1.356 7.181-7.82v-33.691c0-6.464-.558-7.82-7.181-7.82v-1.754h25.535c8.219 0 16.759 6.143 16.759 14.524.011 9.492-9.099 15.813-20.431 15.813zm-6.542-3.672c2.874.24 4.547.321 4.946.321 7.661 0 13.885-3.912 13.885-11.65 0-7.661-5.105-11.971-12.781-11.971-4.229 0-6.065.879-6.065 4.946l.015 18.354z"/></svg>